<svg width="51" height="79" viewBox="0 0 51 79" fill="none" xmlns="http://www.w3.org/2000/svg">
<path d="M15.0541 68.6261C14.8591 67.5461 14.1541 66.2411 12.1741 66.2411C9.86407 66.2411 8.94907 68.1761 8.94907 70.2911C8.94907 72.4211 9.86407 74.3561 12.1741 74.3561C14.1691 74.3561 14.9341 73.0511 15.0541 71.7461H16.8391C16.5991 74.1611 14.9491 75.8861 12.2191 75.8861C9.12907 75.8861 7.17907 73.5311 7.17907 70.2911C7.17907 67.0661 9.12907 64.7111 12.2191 64.7111C14.9341 64.7111 16.5841 66.4361 16.8391 68.6261H15.0541ZM18.1602 64.9361H19.9452V69.3761H25.0152V64.9361H26.8002V75.6611H25.0152V70.9061H19.9452V75.6611H18.1602V64.9361ZM34.8299 73.1261H30.4499L29.5799 75.6611H27.7649L31.7099 64.9361H33.5849L37.5149 75.6611H35.6999L34.8299 73.1261ZM30.9449 71.6411H34.3499L32.6699 66.5711H32.6399L30.9449 71.6411ZM40.0086 75.6611V66.4511H36.5736V64.9361H45.2136V66.4511H41.7936V75.6611H40.0086Z" fill="white"/>
<path fill-rule="evenodd" clip-rule="evenodd" d="M9.64978 38.6627H0.669067V0.426758H50.8148V38.6627L19.2534 38.6613L19.2386 38.6771L16.6569 42.3411L16.6526 42.3367L11.0794 50.2322C10.8496 50.5453 10.4818 50.6549 10.1567 50.5082C9.83096 50.3621 9.61398 49.9893 9.61225 49.5716L9.63852 38.6897L9.64978 38.6627ZM18.265 36.9727L18.4797 36.6681L49.1545 36.6696C49.1545 30.9372 49.1545 2.41987 49.1545 2.41987H2.32929V36.6696H11.3051V37.531C11.3114 37.5806 11.3146 37.6312 11.3146 37.6828L11.2883 46.835L18.2043 37.0538H18.2048C18.2238 37.0253 18.2439 36.9983 18.265 36.9727Z" fill="white"/>
</svg>
