<svg width="60" height="79" viewBox="0 0 60 79" fill="none" xmlns="http://www.w3.org/2000/svg">
<path d="M8.7 69.3611H13.935V70.8911H8.7V74.1461H14.82V75.6611H6.915V64.9361H14.67V66.4511H8.7V69.3611ZM15.9004 71.1161H19.9354V72.5861H15.9004V71.1161ZM21.3877 75.6611V64.9361H23.6977L26.6977 73.1861H26.7277L29.7127 64.9361H32.0227V75.6611H30.2827V67.5311H30.2527L27.4177 75.6611H25.9927L23.1577 67.5311H23.1277V75.6611H21.3877ZM40.0495 73.1261H35.6695L34.7995 75.6611H32.9845L36.9295 64.9361H38.8045L42.7345 75.6611H40.9195L40.0495 73.1261ZM36.1645 71.6411H39.5695L37.8895 66.5711H37.8595L36.1645 71.6411ZM43.7858 64.9361H45.5708V75.6611H43.7858V64.9361ZM47.4179 64.9361H49.2029V74.1461H54.5579V75.6611H47.4179V64.9361Z" fill="white"/>
<path fill-rule="evenodd" clip-rule="evenodd" d="M59.669 0.426758H0V38.3748H59.669V0.426758ZM23.8514 20.9942L3.75259 36.2919H55.8602L36.0917 21.2456L30.2121 25.9986L23.8514 20.9942ZM37.7596 19.8974L57.586 34.9877V3.86993L37.7596 19.8974ZM2.08299 34.945L22.1603 19.6637L2.08299 3.86776V34.945ZM30.1945 23.3344L55.9552 2.50974H3.72568L30.1945 23.3344Z" fill="white"/>
</svg>
