<svg width="96" height="96" viewBox="0 0 96 96" fill="none" xmlns="http://www.w3.org/2000/svg">
<circle cx="48" cy="48" r="48" fill="#C39787"/>
<path d="M66.9054 26.0625H53.9433C53.5402 26.0622 53.1535 26.2215 52.8675 26.5055L26.9538 52.4191C26.3864 52.9893 26.0679 53.761 26.0679 54.5654C26.0679 55.3698 26.3864 56.1415 26.9538 56.7117L39.2937 69.0516C39.8639 69.619 40.6355 69.9375 41.4399 69.9375C42.2444 69.9375 43.016 69.619 43.5862 69.0516L69.4894 43.1484C69.7734 42.8625 69.9326 42.4757 69.9323 42.0727V29.1C69.9343 28.7015 69.8574 28.3065 69.7061 27.9377C69.5548 27.569 69.3321 27.2339 69.0507 26.9516C68.7694 26.6693 68.435 26.4454 68.0668 26.2928C67.6987 26.1402 67.3039 26.0619 66.9054 26.0625Z" stroke="black" stroke-width="2" stroke-linecap="round" stroke-linejoin="round"/>
<path d="M61.5 37.875C60.8325 37.875 60.18 37.6771 59.625 37.3062C59.0699 36.9354 58.6374 36.4083 58.3819 35.7916C58.1265 35.1749 58.0596 34.4963 58.1899 33.8416C58.3201 33.1869 58.6415 32.5855 59.1135 32.1135C59.5855 31.6415 60.1869 31.3201 60.8416 31.1899C61.4963 31.0596 62.1749 31.1265 62.7916 31.3819C63.4083 31.6374 63.9354 32.0699 64.3062 32.625C64.6771 33.18 64.875 33.8325 64.875 34.5C64.875 35.3951 64.5194 36.2536 63.8865 36.8865C63.2536 37.5194 62.3951 37.875 61.5 37.875Z" fill="black"/>
</svg>
