<svg width="96" height="96" viewBox="0 0 96 96" fill="none" xmlns="http://www.w3.org/2000/svg">
<circle cx="48" cy="48" r="48" fill="#C39787"/>
<path d="M48 43.8334L39.6667 32.1667L43 27.1667H53L56.3334 32.1667L48 43.8334ZM55.2917 37.1667L52.7917 40.7084C57.375 42.5834 60.5 46.9584 60.5 52.1667C60.5 55.4819 59.1831 58.6613 56.8389 61.0055C54.4947 63.3497 51.3152 64.6667 48 64.6667C44.6848 64.6667 41.5054 63.3497 39.1612 61.0055C36.817 58.6613 35.5 55.4819 35.5 52.1667C35.5 46.9584 38.625 42.5834 43.2084 40.7084L40.7084 37.1667C35.0834 39.875 31.3334 45.5 31.3334 52.1667C31.3334 56.587 33.0893 60.8262 36.2149 63.9518C39.3405 67.0774 43.5798 68.8334 48 68.8334C52.4203 68.8334 56.6595 67.0774 59.7852 63.9518C62.9108 60.8262 64.6667 56.587 64.6667 52.1667C64.6667 45.5 60.9167 39.875 55.2917 37.1667Z" fill="black"/>
</svg>
