<svg width="96" height="96" viewBox="0 0 96 96" fill="none" xmlns="http://www.w3.org/2000/svg">
<circle cx="48" cy="48" r="48" fill="#C39787"/>
<path d="M54.75 52.5C48.7425 52.5 36.75 55.4925 36.75 61.5V66H72.75V61.5C72.75 55.4925 60.7575 52.5 54.75 52.5ZM34.5 43.5V36.75H30V43.5H23.25V48H30V54.75H34.5V48H41.25V43.5M54.75 48C57.1369 48 59.4261 47.0518 61.114 45.364C62.8018 43.6761 63.75 41.3869 63.75 39C63.75 36.6131 62.8018 34.3239 61.114 32.636C59.4261 30.9482 57.1369 30 54.75 30C52.3631 30 50.0739 30.9482 48.386 32.636C46.6982 34.3239 45.75 36.6131 45.75 39C45.75 41.3869 46.6982 43.6761 48.386 45.364C50.0739 47.0518 52.3631 48 54.75 48Z" fill="black"/>
</svg>
