<svg width="96" height="96" viewBox="0 0 96 96" fill="none" xmlns="http://www.w3.org/2000/svg">
<circle cx="48" cy="48" r="48" fill="#C39787"/>
<path d="M48 25.4414C46.8678 25.4414 45.7539 26.6914 45.7539 28.4688C45.7539 30.2461 46.8678 31.4961 48 31.4961C49.1322 31.4961 50.2461 30.2461 50.2461 28.4688C50.2461 26.6914 49.1322 25.4414 48 25.4414ZM37.8485 25.7319L36.2765 26.5181C37.7503 29.4658 41.2931 32.0659 44.3026 33.7878L45.6889 51.8086H47.1211V41.75H48.8789V51.8086H50.3111L51.6974 33.7878C54.7069 32.0659 58.2497 29.4658 59.7235 26.5181L58.1515 25.7319C56.2071 28.6519 53.7676 30.5315 51.1853 31.3735C50.4718 32.5 49.3428 33.2539 48 33.2539C46.6572 33.2539 45.5283 32.5 44.8147 31.3734C42.2324 30.5316 39.7929 28.6519 37.8485 25.7319ZM39.5039 53.5664V62.9414H25.4414V70.5586H70.5586V67.6289H56.4961V53.5664H39.5039Z" fill="black"/>
</svg>
