<svg width="21" height="21" viewBox="0 0 21 21" fill="none" xmlns="http://www.w3.org/2000/svg">
<path fill-rule="evenodd" clip-rule="evenodd" d="M10.3349 0.423828C7.61906 0.423828 7.27822 0.435703 6.21155 0.484245C5.14695 0.532995 4.42028 0.701536 3.78444 0.948828C3.12672 1.20424 2.5688 1.54591 2.01296 2.10195C1.4567 2.65779 1.11503 3.2157 0.858782 3.8732C0.610862 4.50924 0.44211 5.23612 0.394193 6.30029C0.346485 7.36695 0.333984 7.70799 0.333984 10.4238C0.333984 13.1397 0.346068 13.4795 0.394402 14.5461C0.443361 15.6107 0.611904 16.3374 0.85899 16.9732C1.11462 17.6309 1.45629 18.1888 2.01234 18.7447C2.56797 19.3009 3.12589 19.6434 3.78319 19.8988C4.41944 20.1461 5.14633 20.3147 6.21071 20.3634C7.27739 20.412 7.61802 20.4238 10.3337 20.4238C13.0497 20.4238 13.3895 20.412 14.4562 20.3634C15.5208 20.3147 16.2483 20.1461 16.8846 19.8988C17.5421 19.6434 18.0992 19.3009 18.6548 18.7447C19.2111 18.1888 19.5527 17.6309 19.809 16.9734C20.0548 16.3374 20.2236 15.6105 20.2736 14.5463C20.3215 13.4797 20.334 13.1397 20.334 10.4238C20.334 7.70799 20.3215 7.36716 20.2736 6.30049C20.2236 5.23591 20.0548 4.50924 19.809 3.87341C19.5527 3.2157 19.2111 2.65779 18.6548 2.10195C18.0985 1.5457 17.5423 1.20404 16.8839 0.948828C16.2464 0.701536 15.5193 0.532995 14.4548 0.484245C13.3881 0.435703 13.0485 0.423828 10.3318 0.423828H10.3349ZM9.43779 2.22588C9.70404 2.22547 10.0011 2.22588 10.3349 2.22588C13.0049 2.22588 13.3214 2.23547 14.3758 2.28338C15.3508 2.32797 15.8799 2.49088 16.2324 2.62776C16.6991 2.80901 17.0318 3.02568 17.3816 3.37568C17.7316 3.72568 17.9483 4.05901 18.13 4.52568C18.2668 4.87776 18.43 5.40693 18.4743 6.38193C18.5223 7.43609 18.5327 7.75276 18.5327 10.4215C18.5327 13.0903 18.5223 13.4069 18.4743 14.4611C18.4298 15.4361 18.2668 15.9653 18.13 16.3173C17.9487 16.784 17.7316 17.1163 17.3816 17.4661C17.0316 17.8161 16.6993 18.0328 16.2324 18.214C15.8804 18.3515 15.3508 18.514 14.3758 18.5586C13.3216 18.6065 13.0049 18.6169 10.3349 18.6169C7.66464 18.6169 7.34818 18.6065 6.294 18.5586C5.31899 18.5136 4.78982 18.3507 4.43711 18.2138C3.97044 18.0326 3.6371 17.8159 3.2871 17.4659C2.93709 17.1159 2.72042 16.7834 2.53876 16.3165C2.40188 15.9644 2.23875 15.4353 2.19438 14.4603C2.14646 13.4061 2.13688 13.0894 2.13688 10.419C2.13688 7.74859 2.14646 7.43359 2.19438 6.37943C2.23896 5.40443 2.40188 4.87526 2.53876 4.52276C2.72001 4.05609 2.93709 3.72276 3.2871 3.37276C3.6371 3.02276 3.97044 2.80609 4.43711 2.62443C4.78961 2.48693 5.31899 2.32442 6.294 2.27963C7.21651 2.23797 7.57402 2.22547 9.43779 2.22338V2.22588ZM15.6729 3.8863C15.0103 3.8863 14.4728 4.42318 14.4728 5.08589C14.4728 5.74839 15.0103 6.28589 15.6729 6.28589C16.3354 6.28589 16.8729 5.74839 16.8729 5.08589C16.8729 4.42339 16.3354 3.8863 15.6729 3.8863ZM10.3349 5.28838C7.49887 5.28838 5.19947 7.58776 5.19947 10.4238C5.19947 13.2598 7.49887 15.5582 10.3349 15.5582C13.171 15.5582 15.4696 13.2598 15.4696 10.4238C15.4696 7.58776 13.171 5.28838 10.3349 5.28838ZM10.3349 7.09047C12.1758 7.09047 13.6683 8.58276 13.6683 10.4238C13.6683 12.2646 12.1758 13.7571 10.3349 13.7571C8.49384 13.7571 7.00153 12.2646 7.00153 10.4238C7.00153 8.58276 8.49384 7.09047 10.3349 7.09047Z" fill="white"/>
</svg>
