<svg width="1786" height="163" viewBox="0 0 1786 163" fill="none" xmlns="http://www.w3.org/2000/svg">
<path d="M39.0695 162.639V151.821C39.0695 147.673 36.5446 144.969 32.2168 144.969C30.0534 144.969 27.7092 145.69 26.0862 148.035C24.8245 146.051 23.0216 144.969 20.3169 144.969C18.5132 144.969 16.7111 145.51 15.2679 147.493V145.33H11.4814V162.639H15.2679V153.083C15.2679 150.018 16.891 148.575 19.4158 148.575C21.9391 148.575 23.2023 150.198 23.2023 153.083V162.639H26.9888V153.083C26.9888 150.018 28.7909 148.575 31.1351 148.575C33.66 148.575 34.9216 150.198 34.9216 153.083V162.639H39.0695ZM95.145 145.33H89.0152V140.101H85.2287V145.33H81.8028V148.755H85.2279V156.689C85.2279 160.657 86.8509 163 91.1787 163C92.8017 163 94.6038 162.459 95.867 161.738L94.7845 158.492C93.7027 159.213 92.4411 159.394 91.5392 159.394C89.7363 159.394 89.0152 158.312 89.0152 156.509V148.755H95.145V145.33ZM127.241 144.968C125.077 144.968 123.635 146.051 122.733 147.493V145.33H118.947V162.639H122.733V152.903C122.733 150.018 123.995 148.395 126.339 148.395C127.06 148.395 127.962 148.576 128.683 148.756L129.765 145.15C129.044 144.969 127.962 144.968 127.241 144.968ZM78.7374 146.772C76.9337 145.51 74.4096 144.969 71.7049 144.969C67.3779 144.969 64.4933 147.133 64.4933 150.559C64.4933 153.444 66.6568 155.066 70.4433 155.608L72.2462 155.788C74.2298 156.148 75.3115 156.689 75.3115 157.591C75.3115 158.853 73.8692 159.755 71.3443 159.755C68.8202 159.755 66.8366 158.853 65.5742 157.952L63.7713 160.836C65.7549 162.279 68.4597 163 71.1636 163C76.2125 163 79.098 160.657 79.098 157.411C79.098 154.345 76.7538 152.722 73.1472 152.182L71.3443 152.001C69.7213 151.82 68.4597 151.461 68.4597 150.379C68.4597 149.116 69.7213 148.395 71.7049 148.395C73.8692 148.395 76.0327 149.296 77.1144 149.838L78.7374 146.772ZM179.351 144.969C177.186 144.969 175.744 146.051 174.842 147.493V145.33H171.056V162.639H174.842V152.903C174.842 150.018 176.105 148.395 178.448 148.395C179.17 148.395 180.072 148.576 180.793 148.756L181.875 145.15C181.154 144.969 180.072 144.969 179.351 144.969ZM131.027 153.985C131.027 159.213 134.633 163 140.223 163C142.747 163 144.55 162.459 146.353 161.017L144.55 157.952C143.108 159.034 141.666 159.574 140.043 159.574C136.977 159.574 134.814 157.411 134.814 153.985C134.814 150.739 136.977 148.575 140.043 148.395C141.666 148.395 143.108 148.936 144.55 150.018L146.353 146.953C144.55 145.51 142.747 144.969 140.223 144.969C134.633 144.969 131.027 148.756 131.027 153.985ZM166.008 153.985V145.33H162.221V147.493C160.959 145.871 159.156 144.969 156.812 144.969C151.943 144.969 148.157 148.756 148.157 153.985C148.157 159.213 151.943 163 156.812 163C159.336 163 161.139 162.099 162.221 160.476V162.639H166.008V153.985ZM152.123 153.985C152.123 150.919 154.107 148.395 157.352 148.395C160.417 148.395 162.582 150.739 162.582 153.985C162.582 157.05 160.417 159.574 157.352 159.574C154.107 159.393 152.123 157.05 152.123 153.985ZM106.866 144.969C101.817 144.969 98.2104 148.575 98.2104 153.985C98.2104 159.394 101.816 163 107.046 163C109.57 163 112.095 162.279 114.078 160.657L112.275 157.952C110.832 159.034 109.029 159.755 107.227 159.755C104.882 159.755 102.538 158.673 101.997 155.607H114.8V154.165C114.98 148.575 111.735 144.969 106.866 144.969ZM106.866 148.215C109.209 148.215 110.833 149.658 111.193 152.362H102.178C102.538 150.018 104.161 148.215 106.866 148.215ZM200.807 153.985V138.478H197.021V147.493C195.758 145.871 193.955 144.969 191.611 144.969C186.743 144.969 182.957 148.756 182.957 153.985C182.957 159.213 186.743 163 191.611 163C194.136 163 195.939 162.099 197.021 160.476V162.639H200.807V153.985ZM186.924 153.985C186.924 150.919 188.907 148.395 192.153 148.395C195.218 148.395 197.381 150.739 197.381 153.985C197.381 157.05 195.218 159.574 192.153 159.574C188.907 159.393 186.924 157.05 186.924 153.985ZM60.3454 153.985V145.33H56.5589V147.493C55.2964 145.871 53.4935 144.969 51.1494 144.969C46.2811 144.969 42.4946 148.756 42.4946 153.985C42.4946 159.213 46.2811 163 51.1494 163C53.6742 163 55.4771 162.099 56.5589 160.476V162.639H60.3454V153.985ZM46.2811 153.985C46.2811 150.919 48.2647 148.395 51.5099 148.395C54.5753 148.395 56.7396 150.739 56.7396 153.985C56.7396 157.05 54.5753 159.574 51.5099 159.574C48.2647 159.393 46.2811 157.05 46.2811 153.985Z" fill="white"/>
<path d="M77.4746 13.8838H134.272V115.939H77.4746V13.8838Z" fill="#FF5F00"/>
<path d="M81.0813 64.9118C81.0813 44.1764 90.8177 25.7843 105.783 13.8836C94.785 5.22882 80.9014 0 65.7554 0C29.8723 0 0.842773 29.0296 0.842773 64.9118C0.842773 100.793 29.8723 129.824 65.7546 129.824C80.9006 129.824 94.7841 124.595 105.783 115.939C90.8177 104.219 81.0813 85.6472 81.0813 64.9118Z" fill="#EB001B"/>
<path d="M210.903 64.9118C210.903 100.793 181.874 129.824 145.991 129.824C130.845 129.824 116.962 124.595 105.963 115.939C121.109 104.039 130.665 85.6472 130.665 64.9118C130.665 44.1764 120.928 25.7843 105.963 13.8836C116.961 5.22882 130.845 0 145.991 0C181.874 0 210.903 29.2103 210.903 64.9118Z" fill="#F79E1B"/>
<path d="M493.229 63.4688C493.052 77.3993 505.657 85.1725 515.152 89.7946C524.907 94.5365 528.184 97.5776 528.145 101.819C528.072 108.308 520.363 111.173 513.15 111.284C500.565 111.479 493.247 107.89 487.43 105.175L482.896 126.367C488.733 129.054 499.54 131.397 510.747 131.5C537.055 131.5 554.266 118.528 554.359 98.4146C554.462 72.8884 519.015 71.4756 519.257 60.0661C519.34 56.6064 522.645 52.9146 529.886 51.9759C533.471 51.5017 543.365 51.1388 554.583 56.2992L558.986 35.7955C552.953 33.6012 545.2 31.5 535.546 31.5C510.785 31.5 493.369 44.649 493.229 63.4688ZM601.294 33.2661C596.49 33.2661 592.442 36.0652 590.635 40.3607L553.056 129.994H579.345L584.576 115.552H616.7L619.734 129.994H642.904L622.685 33.2661H601.294ZM604.972 59.3959L612.558 95.7183H591.781L604.972 59.3959ZM461.356 33.2673L440.634 129.993H465.685L486.397 33.2649H461.356M424.297 33.2649L398.223 99.1029L387.676 43.1236C386.439 36.8745 381.551 33.2661 376.124 33.2661H333.501L332.904 36.0749C341.655 37.9717 351.596 41.0309 357.62 44.3042C361.306 46.3038 362.357 48.0518 363.568 52.8033L383.544 129.994H410.017L450.603 33.2661L424.297 33.2649Z" fill="url(#paint0_linear_374_694)"/>
<g clip-path="url(#clip0_374_694)">
<path d="M1077.56 149H791.151C776.671 149 764.904 137.233 764.904 122.719V40.2472C764.904 25.7671 776.671 14 791.151 14H1077.56C1092.08 14 1103.81 25.7671 1103.81 40.2472V122.719C1103.81 137.233 1092.04 149 1077.56 149Z" fill="url(#paint1_linear_374_694)"/>
<path d="M1058.2 56.8296L1040.09 126.042L1040.03 126.178H1054.17L1072.34 56.8296H1058.2Z" fill="#292929"/>
<path d="M833.914 96.2003C832.049 97.1837 829.505 97.7602 827.098 97.7602C822.011 97.7602 819.128 96.9463 818.823 92.8431V92.5718C818.823 92.4023 818.789 92.2327 818.789 92.0631V80.1264L818.823 78.7022V70.2583H818.789V66.6638L818.823 65.2395V57.1008L806.208 58.7625C814.754 57.1008 819.637 50.3525 819.637 43.6381V39.501H805.462V58.8642L804.648 59.1016V94.9795C805.123 105.051 811.77 111.053 822.655 111.053C826.521 111.053 830.76 110.172 834.015 108.713L834.083 108.68V96.0986L833.914 96.2003Z" fill="#292929"/>
<path d="M836.152 54.2183L796.374 60.3562V70.4278L836.152 64.2899V54.2183Z" fill="#292929"/>
<path d="M836.152 68.9697L796.374 75.1076V84.7384L836.152 78.6005V68.9697Z" fill="#292929"/>
<path d="M880.745 73.6156C880.169 62.4249 873.183 55.7783 861.789 55.7783C855.244 55.7783 849.818 58.3217 846.156 63.1031C842.493 67.8846 840.561 74.9042 840.561 83.4158C840.561 91.9275 842.493 98.981 846.156 103.729C849.818 108.51 855.244 111.053 861.789 111.053C873.183 111.053 880.203 104.373 880.745 93.1144V110.002H894.92V56.9313L880.745 59.1016M881.491 83.4158C881.491 93.3518 876.269 99.761 868.232 99.761C859.924 99.761 854.973 93.657 854.973 83.4158C854.973 73.1408 859.924 66.969 868.232 66.969C872.267 66.969 875.659 68.5289 877.998 71.5131C880.27 74.4633 881.491 78.5666 881.491 83.4158Z" fill="#292929"/>
<path d="M936.257 55.7785C924.829 55.7785 917.843 62.4251 917.301 73.6497V41.502L903.126 43.6723V110.002H917.301V93.1146C917.843 104.373 924.863 111.054 936.257 111.054C949.618 111.054 957.587 100.711 957.587 83.416C957.587 66.1214 949.618 55.7785 936.257 55.7785ZM929.814 99.7612C921.743 99.7612 916.555 93.352 916.555 83.416C916.555 78.5668 917.776 74.4635 920.048 71.5472C922.387 68.563 925.779 67.0031 929.814 67.0031C938.122 67.0031 943.073 73.141 943.073 83.45C943.073 93.6572 938.122 99.7612 929.814 99.7612Z" fill="#292929"/>
<path d="M996.144 55.7785C984.716 55.7785 977.73 62.4251 977.188 73.6497V41.502L963.013 43.6723V110.002H977.188V93.1146C977.73 104.373 984.75 111.054 996.144 111.054C1009.5 111.054 1017.47 100.711 1017.47 83.416C1017.47 66.1214 1009.5 55.7785 996.144 55.7785ZM989.735 99.7612C981.664 99.7612 976.475 93.352 976.475 83.416C976.475 78.5668 977.696 74.4635 979.968 71.5472C982.308 68.563 985.699 67.0031 989.735 67.0031C998.043 67.0031 1002.99 73.141 1002.99 83.45C1002.99 93.6572 998.043 99.7612 989.735 99.7612Z" fill="#292929"/>
<path d="M1017.51 56.8296H1032.63L1044.94 109.934H1031.38L1017.51 56.8296Z" fill="#292929"/>
</g>
<path d="M1243.55 18.1284C1242.3 18.13 1241.05 18.1382 1239.8 18.1532C1238.57 18.1944 1237.3 18.2604 1236.07 18.4832C1234.22 18.7768 1232.46 19.5072 1230.93 20.6145C1229.41 21.7217 1228.18 23.1741 1227.33 24.8522C1226.75 25.9907 1226.39 27.1457 1226.17 28.3997C1225.94 29.6207 1225.87 30.8747 1225.84 32.1122C1225.83 32.6868 1225.82 33.2616 1225.81 33.8364V129.182C1225.81 129.759 1225.83 130.32 1225.84 130.889C1225.87 132.127 1225.94 133.389 1226.17 134.618C1226.39 135.856 1226.76 137.019 1227.34 138.158C1228.48 140.397 1230.3 142.218 1232.54 143.355C1233.67 143.933 1234.83 144.304 1236.08 144.527C1237.3 144.749 1238.56 144.824 1239.8 144.857L1241.51 144.881H1408.11L1409.82 144.857C1411.06 144.824 1412.32 144.749 1413.55 144.527C1414.79 144.304 1415.95 143.941 1417.08 143.363C1419.32 142.227 1421.15 140.403 1422.29 138.158C1422.86 137.019 1423.23 135.864 1423.45 134.61C1423.67 133.389 1423.75 132.135 1423.78 130.898C1423.8 130.32 1423.8 129.759 1423.8 129.182L1423.81 127.152V33.8282C1423.81 33.2507 1423.8 32.6897 1423.78 32.1204C1423.76 30.8709 1423.65 29.6243 1423.45 28.3914C1423.05 25.907 1421.88 23.6109 1420.11 21.8314C1418.33 20.0519 1416.03 18.88 1413.55 18.4832C1412.32 18.2799 1411.07 18.1696 1409.82 18.1532C1408.57 18.1179 1407.33 18.1097 1406.08 18.1284H1243.55ZM1243.55 22.3524H1408.07C1408.62 22.3524 1409.15 22.3689 1409.7 22.3772C1410.64 22.4102 1411.76 22.4597 1412.79 22.6412C1413.69 22.8062 1414.44 23.0537 1415.16 23.4167C1416.6 24.1513 1417.78 25.3272 1418.52 26.7744C1418.89 27.5223 1419.15 28.3235 1419.29 29.1504C1419.47 30.1652 1419.52 31.2789 1419.55 32.2359C1419.56 32.7722 1419.57 33.3084 1419.57 33.8612V129.165C1419.57 129.701 1419.57 130.238 1419.55 130.782C1419.52 131.731 1419.47 132.845 1419.28 133.876C1419.1 135.09 1418.64 136.243 1417.92 137.238C1417.2 138.233 1416.25 139.041 1415.16 139.593C1414.41 139.969 1413.62 140.23 1412.8 140.369C1411.78 140.531 1410.75 140.619 1409.72 140.633L1408.07 140.657H1241.54C1240.99 140.657 1240.44 140.641 1239.92 140.633C1238.88 140.619 1237.85 140.531 1236.83 140.369C1235.93 140.204 1235.18 139.956 1234.45 139.593C1233 138.861 1231.83 137.684 1231.1 136.235C1230.72 135.487 1230.46 134.686 1230.32 133.859C1230.16 132.842 1230.07 131.813 1230.06 130.782C1230.05 130.24 1230.04 129.699 1230.04 129.157V33.8529C1230.04 33.3167 1230.04 32.7722 1230.06 32.2277C1230.09 31.2872 1230.14 30.1817 1230.32 29.1339C1230.49 28.2429 1230.74 27.4922 1231.1 26.7662C1231.83 25.3214 1233.01 24.1482 1234.46 23.4167C1235.2 23.0432 1236 22.7819 1236.83 22.6412C1237.86 22.4597 1238.97 22.4019 1239.92 22.3772C1240.46 22.3607 1241 22.3607 1241.54 22.3524H1243.55ZM1282.41 52.8774C1279.93 53.0094 1276.9 54.5192 1275.15 56.6394C1273.57 58.4544 1272.18 61.4244 1272.54 64.2129C1275.33 64.4604 1278.11 62.8187 1279.87 60.7644C1281.56 58.6359 1282.71 55.7897 1282.41 52.8857V52.8774ZM1300.61 56.3424V101.66H1307.64V86.1744H1317.38C1326.27 86.1744 1332.52 80.0777 1332.52 71.2254C1332.52 62.3979 1326.4 56.3342 1317.6 56.3342L1300.61 56.3424ZM1307.64 62.2742H1315.74C1321.84 62.2742 1325.32 65.5412 1325.32 71.2584C1325.32 76.9674 1321.84 80.2674 1315.72 80.2674H1307.64V62.2742ZM1281.62 64.7492C1277.91 64.8317 1274.78 67.0592 1272.96 67.0592C1271.02 67.0592 1268.07 64.8812 1264.87 64.9389C1262.78 64.9909 1260.75 65.5871 1258.97 66.6683C1257.19 67.7495 1255.73 69.278 1254.72 71.1017C1250.37 78.5927 1253.57 89.7054 1257.81 95.8104C1259.86 98.8299 1262.33 102.155 1265.59 102.031C1268.67 101.915 1269.88 100.034 1273.62 100.034C1277.37 100.034 1278.45 102.031 1281.71 101.973C1285.09 101.915 1287.21 98.9537 1289.25 95.9259C1291.61 92.4857 1292.58 89.1609 1292.64 88.9877C1292.58 88.9217 1286.12 86.4467 1286.06 79.0134C1286 72.7929 1291.14 69.8312 1291.37 69.6497C1288.47 65.3597 1283.95 64.8812 1282.38 64.7574C1282.13 64.7416 1281.88 64.7443 1281.62 64.7492ZM1349.31 68.0244C1341.14 68.0244 1336.06 72.4217 1335.68 78.3864H1342.09C1342.68 75.4329 1345.13 73.5519 1349.06 73.5519C1353.2 73.5519 1355.68 75.7464 1355.68 79.4177V81.9669L1346.63 82.4949C1338.79 82.9404 1334.36 86.4879 1334.36 92.2629C1334.36 98.2029 1338.88 102.221 1345.35 102.221C1349.69 102.221 1353.86 99.9024 1355.77 96.2229H1355.93V101.66H1362.43V78.8897C1362.43 72.2649 1357.32 68.0244 1349.31 68.0244ZM1365.31 68.6184L1377.24 101.693C1377.24 101.717 1376.64 103.673 1376.64 103.73C1375.61 107.113 1373.92 108.441 1370.77 108.441C1370.2 108.441 1369.07 108.441 1368.57 108.317V113.812C1369.06 113.903 1370.77 113.969 1371.33 113.969C1378.18 113.969 1381.45 111.395 1384.27 103.384L1396.64 68.6184H1389.48L1381.13 95.5052H1381.01L1372.65 68.6102L1365.31 68.6184ZM1355.68 86.6777V89.2847C1355.68 93.5829 1351.97 96.8499 1347.24 96.8499C1343.59 96.8499 1341.2 94.9689 1341.2 92.0732C1341.2 89.2517 1343.5 87.4532 1347.55 87.1809L1355.68 86.6777Z" fill="white"/>
<path d="M1612.84 135.5L1619.01 120.462L1606.96 92.4424H1614.2L1622.37 112.292L1630.13 92.4424H1637.24L1619.72 135.5H1612.84ZM1587.92 122.518C1580.84 122.518 1573.47 116.813 1573.47 107.199C1573.47 97.4248 1580.59 91.8509 1588.02 91.8509C1591.89 91.8509 1595.37 93.4549 1597.48 95.9712V92.4424H1604.25V121.916H1597.48V118.086C1596.32 119.493 1594.86 120.621 1593.2 121.388C1591.55 122.154 1589.74 122.54 1587.92 122.518ZM1545.86 121.916V85.1642H1558.44C1566.03 85.1642 1571.64 90.9887 1571.64 98.2469C1571.64 105.545 1566.02 111.4 1558.39 111.4H1552.71V121.926L1545.86 121.916ZM1589.01 116.282C1594.04 116.282 1597.81 112.202 1597.81 107.119C1597.81 102.137 1594.04 98.0363 1589.01 98.0363C1587.83 98.0334 1586.66 98.2676 1585.57 98.7253C1584.48 99.1829 1583.49 99.8548 1582.66 100.701C1581.83 101.548 1581.18 102.551 1580.75 103.654C1580.31 104.756 1580.1 105.934 1580.13 107.119C1580.13 112.252 1583.99 116.282 1589.01 116.282ZM1552.71 105.034H1557.91C1561.99 105.034 1564.77 102.026 1564.77 98.2469C1564.79 97.3464 1564.62 96.4519 1564.28 95.6183C1563.94 94.7846 1563.44 94.0293 1562.79 93.3986C1562.15 92.7679 1561.39 92.2751 1560.55 91.9503C1559.71 91.6256 1558.82 91.4758 1557.92 91.51H1552.71V105.034ZM1558.28 64.302C1551.84 64.302 1545.81 61.9962 1545.81 54.3271V51.6704H1555.01L1555.03 55.0088C1555.03 56.8835 1556.33 58.1165 1558.47 58.1165C1560.75 58.1165 1561.52 56.9436 1561.8 55.7907C1562.03 54.9618 1562.01 54.0836 1561.75 53.2644C1559.98 48.8133 1547.79 46.7882 1546.3 39.7607C1545.98 38.2329 1545.95 36.656 1546.23 35.1191C1547.13 29.505 1552.11 27.5 1558.21 27.5C1563.06 27.5 1569.77 28.6429 1569.77 36.1316V38.5576H1561.23V36.4223C1561.23 34.5476 1560.03 33.3145 1558.03 33.3145C1555.88 33.3145 1555.14 34.5376 1554.9 35.6404C1554.78 36.2367 1554.79 36.8513 1554.92 37.4449C1555.9 41.4649 1568.92 43.6103 1570.37 50.8083C1570.51 51.5301 1570.81 53.4749 1570.39 56.4424C1569.58 62.1867 1564.49 64.302 1558.29 64.302H1558.28ZM1669.82 64.1216C1663.44 64.1216 1657.48 61.8459 1657.48 54.2569V51.6203H1666.59V54.9085C1666.59 56.7632 1667.88 58.0163 1670 58.0163C1672.27 58.0163 1673.03 56.8434 1673.31 55.7105C1673.54 54.888 1673.52 54.0171 1673.26 53.2043C1671.51 48.7932 1659.44 46.7782 1657.97 39.8108C1657.64 38.3006 1657.62 36.74 1657.89 35.2193C1658.79 29.6654 1663.74 27.6704 1669.77 27.6704C1674.57 27.6704 1681.2 28.8233 1681.2 36.2419V38.6479H1672.74V36.5226C1672.74 34.6679 1671.58 33.4449 1669.59 33.4449C1667.47 33.4449 1666.7 34.6479 1666.46 35.7506C1666.36 36.336 1666.38 36.9365 1666.51 37.515C1667.47 41.505 1680.36 43.6303 1681.8 50.7481C1681.95 51.4799 1682.24 53.4048 1681.83 56.3421C1681.02 62.0263 1675.97 64.1216 1669.83 64.1216H1669.82ZM1702.06 63.9912C1695.76 63.9912 1690.68 61.886 1690.08 55.4699C1690.03 54.7261 1690 53.9803 1690 53.2343V28.5627H1698.67V54.0063C1698.67 54.4474 1698.67 54.9386 1698.75 55.3095C1698.92 56.1617 1699.67 57.7957 1702.06 57.7957C1704.44 57.7957 1705.17 56.1617 1705.34 55.3095C1705.41 54.8784 1705.43 54.4422 1705.42 54.0063V28.5627H1714.09V53.2343C1714.09 53.9836 1714.07 54.7327 1714.01 55.48C1713.41 61.896 1708.37 63.9912 1702.06 63.9912ZM1773.62 63.6203C1767.54 63.6203 1762.14 61.4048 1761.57 55.1391C1761.49 54.383 1761.44 53.6237 1761.43 52.8634V38.4073C1761.43 37.7957 1761.52 36.703 1761.59 36.1316C1762.36 29.7055 1767.54 27.6504 1773.62 27.6504C1779.7 27.6504 1785.02 29.6855 1785.65 36.1316C1785.76 37.2343 1785.73 38.4073 1785.73 38.4073V39.5501H1777.09V37.6153C1777.09 37.6153 1777.09 36.8133 1776.99 36.312C1776.83 35.5602 1776.17 33.8058 1773.54 33.8058C1771.05 33.8058 1770.32 35.4699 1770.14 36.312C1770.04 36.8474 1769.99 37.3914 1770 37.9361V53.6454C1770 54.0812 1770.02 54.5168 1770.08 54.9486C1770.24 55.8709 1771.12 57.4549 1773.6 57.4549C1776.08 57.4549 1776.93 55.8709 1777.09 54.9486C1777.16 54.5175 1777.18 54.0813 1777.17 53.6454V48.6629H1773.65V43.6504H1785.81V52.8734C1785.81 53.515 1785.78 53.9962 1785.68 55.1391C1785.11 61.4048 1779.7 63.6203 1773.62 63.6203ZM1576.17 62.9687L1582.53 28.5627H1597.79L1604.12 62.9687H1594.9L1590.34 31.7506L1590.14 31.7707L1585.44 62.9687H1576.17ZM1610.97 62.9687L1611.71 28.5627H1625.71L1629.92 54.8785H1630.13L1634.35 28.5627H1648.34L1649.09 62.9687H1640.52L1640.32 32.0614H1640.11L1634.38 62.9687H1625.68L1619.95 32.0714H1619.77L1619.56 62.9787L1610.97 62.9687ZM1723.65 62.6078V28.5627H1736.38L1744.28 55.5602H1744.46L1743.99 28.5627H1752.5V62.6078H1740.29L1731.8 34.6679H1731.62L1732.09 62.6078H1723.65Z" fill="white"/>
<defs>
<linearGradient id="paint0_linear_374_694" x1="14584.8" y1="332.1" x2="14874" y2="-9938.06" gradientUnits="userSpaceOnUse">
<stop stop-color="white"/>
<stop offset="1" stop-color="#254AA5"/>
</linearGradient>
<linearGradient id="paint1_linear_374_694" x1="764.904" y1="81.4947" x2="1103.82" y2="81.4947" gradientUnits="userSpaceOnUse">
<stop stop-color="#3BFF9D"/>
<stop offset="1" stop-color="#3BFFC8"/>
</linearGradient>
<clipPath id="clip0_374_694">
<rect width="338.907" height="135" fill="white" transform="translate(764.904 14)"/>
</clipPath>
</defs>
</svg>
