<svg width="53" height="79" viewBox="0 0 53 79" fill="none" xmlns="http://www.w3.org/2000/svg">
<path d="M1.7297 76V65.275H6.2897C8.3447 65.275 9.8297 66.235 9.8297 68.485C9.8297 70.735 8.3447 71.71 6.2897 71.71H3.5147V76H1.7297ZM3.5147 66.79V70.18H6.2147C7.4147 70.18 8.0447 69.67 8.0447 68.485C8.0447 67.315 7.4147 66.79 6.2147 66.79H3.5147ZM11.0168 65.275H12.8018V69.715H17.8718V65.275H19.6568V76H17.8718V71.245H12.8018V76H11.0168V65.275ZM26.4237 76.225C23.1837 76.225 21.1587 73.855 21.1587 70.63C21.1587 67.405 23.1837 65.05 26.4237 65.05C29.6487 65.05 31.6887 67.405 31.6887 70.63C31.6887 73.855 29.6487 76.225 26.4237 76.225ZM26.4237 74.695C28.8837 74.695 29.9037 72.805 29.9037 70.63C29.9037 68.47 28.8837 66.58 26.4237 66.58C23.9637 66.58 22.9287 68.47 22.9287 70.63C22.9287 72.805 23.9637 74.695 26.4237 74.695ZM33.1067 76V65.275H35.1017L39.9317 73.33H39.9617V65.275H41.7467V76H39.7667L34.9217 67.975H34.8917V76H33.1067ZM45.3653 69.7H50.6003V71.23H45.3653V74.485H51.4853V76H43.5803V65.275H51.3353V66.79H45.3653V69.7Z" fill="white"/>
<path d="M34.6343 25.3043L31.5697 30.1554C31.2878 30.5999 30.7036 30.7394 30.2509 30.4712C27.5082 28.8373 24.982 26.8648 22.7329 24.5993C20.4673 22.3501 18.4948 19.824 16.861 17.0812C16.5931 16.6281 16.7338 16.0436 17.1787 15.7624L22.0278 12.6978L16.8264 2.29847L8.40625 5.66667C10.0116 14.1606 13.83 21.4177 19.8732 27.459C25.9126 33.5022 33.1715 37.3207 41.6656 38.926L45.0338 30.5039L34.6343 25.3043ZM24.1103 23.2217C26.0228 25.1463 28.1444 26.8506 30.4362 28.3026L33.4578 23.5196C33.7253 23.0961 34.2702 22.9443 34.7181 23.1691L46.7071 29.1636H46.7075C47.1592 29.3903 47.3624 29.9254 47.1752 30.3949L43.1795 40.3871C43.0086 40.8141 42.5627 41.0633 42.1099 40.9853C32.8854 39.4012 25.0049 35.3474 18.4941 28.8384C11.9853 22.3276 7.93109 14.4453 6.34722 5.22259C6.2692 4.76983 6.51847 4.32379 6.94531 4.15304L16.9375 0.157322C17.4071 -0.029898 17.942 0.173297 18.1689 0.624982L24.1633 12.6141V12.6145C24.3882 13.0623 24.2364 13.6072 23.8129 13.8747L19.03 16.8964C20.4819 19.1881 22.1862 21.3099 24.1108 23.2222L24.1103 23.2217Z" fill="white"/>
</svg>
