<svg width="59" height="77" viewBox="0 0 59 77" fill="none" xmlns="http://www.w3.org/2000/svg">
<path d="M0.904697 62.9195H2.7947L5.5247 71.6945H5.5397L8.2697 62.9195H10.1597L6.4997 73.6445H4.5647L0.904697 62.9195ZM11.1933 62.9195H12.9783V73.6445H11.1933V62.9195ZM18.9343 67.2545C21.2293 67.8395 22.9693 68.3345 22.9693 70.7345C22.9693 72.4445 21.6793 73.8695 18.9793 73.8695C16.3543 73.8695 14.3593 72.5045 14.2543 70.0745H16.0393C16.1293 71.4395 17.0593 72.3395 18.9793 72.3395C20.5693 72.3395 21.1843 71.6345 21.1843 70.8095C21.1843 69.5345 20.2693 69.2945 18.1543 68.7695C16.4743 68.3495 14.6593 67.7045 14.6593 65.6645C14.6593 63.7595 16.1293 62.6945 18.4693 62.6945C20.8243 62.6945 22.5343 63.9245 22.6843 66.1295H20.8993C20.7343 64.8845 19.9543 64.2245 18.4693 64.2245C17.1943 64.2245 16.4293 64.7045 16.4293 65.4995C16.4293 66.6695 17.4343 66.8795 18.9343 67.2545ZM24.3915 62.9195H26.1765V73.6445H24.3915V62.9195ZM30.5067 73.6445V64.4345H27.0717V62.9195H35.7117V64.4345H32.2917V73.6445H30.5067ZM48.0963 69.9845C48.0963 72.3245 46.8513 73.8695 43.8663 73.8695C40.8813 73.8695 39.6363 72.3245 39.6363 69.9845V62.9195H41.4213V69.9845C41.4213 71.6045 42.2313 72.3395 43.8663 72.3395C45.5163 72.3395 46.3263 71.6045 46.3263 69.9845V62.9195H48.0963V69.9845ZM53.9734 67.2545C56.2684 67.8395 58.0084 68.3345 58.0084 70.7345C58.0084 72.4445 56.7184 73.8695 54.0184 73.8695C51.3934 73.8695 49.3984 72.5045 49.2934 70.0745H51.0784C51.1684 71.4395 52.0984 72.3395 54.0184 72.3395C55.6084 72.3395 56.2234 71.6345 56.2234 70.8095C56.2234 69.5345 55.3084 69.2945 53.1934 68.7695C51.5134 68.3495 49.6984 67.7045 49.6984 65.6645C49.6984 63.7595 51.1684 62.6945 53.5084 62.6945C55.8634 62.6945 57.5734 63.9245 57.7234 66.1295H55.9384C55.7734 64.8845 54.9934 64.2245 53.5084 64.2245C52.2334 64.2245 51.4684 64.7045 51.4684 65.4995C51.4684 66.6695 52.4734 66.8795 53.9734 67.2545Z" fill="white"/>
<path fill-rule="evenodd" clip-rule="evenodd" d="M29.8974 19.5865C28.5219 19.5865 27.2027 19.0399 26.2301 18.0673C25.2574 17.0947 24.7112 15.7756 24.7112 14.4C24.7112 13.0245 25.2575 11.7053 26.2301 10.7327C27.2027 9.76004 28.5218 9.21384 29.8974 9.21384C31.273 9.21384 32.592 9.76011 33.5647 10.7327C34.5373 11.7053 35.0835 13.0244 35.0835 14.4C35.0824 15.7753 34.5356 17.0935 33.5632 18.0659C32.5909 19.0383 31.2724 19.585 29.8974 19.5865ZM29.8974 7.43791V7.43762C28.0505 7.43762 26.279 8.17137 24.973 9.47764C23.667 10.7836 22.9333 12.555 22.9333 14.402C22.9336 16.2492 23.6673 18.0204 24.9735 19.3264C26.2798 20.6324 28.0512 21.3658 29.8982 21.3655C31.745 21.3655 33.5165 20.6315 34.8222 19.3253C36.1282 18.019 36.8617 16.2476 36.8614 14.4004C36.8586 12.5545 36.124 10.7848 34.8186 9.47964C33.5132 8.17452 31.7434 7.4402 29.8973 7.43826L29.8974 7.43791ZM38.7734 23.8947C42.2108 18.9888 44.3005 11.3348 38.8727 5.90646C36.5013 3.5407 33.2884 2.21183 29.9386 2.21183C26.5891 2.21183 23.3761 3.5407 21.0046 5.90646C16.4664 10.4449 16.4994 17.8304 21.084 23.8689L30.2926 35.9939L38.7732 23.8925L38.7734 23.8947ZM29.9396 0.443767C28.0471 0.43597 26.1717 0.803631 24.4223 1.52536C22.6729 2.24738 21.0839 3.30916 19.7475 4.64919C18.4356 5.94595 17.4091 7.50228 16.7338 9.2187C16.0584 10.9354 15.7494 12.7739 15.8262 14.617C16.0092 18.3725 17.3509 21.9795 19.667 24.9415L29.6138 38.04C29.7818 38.2616 30.0439 38.3917 30.3218 38.3914H30.3386C30.6227 38.3859 30.8871 38.245 31.05 38.012L40.2294 24.9142C42.5119 21.6582 43.8374 17.9823 43.9634 14.5618H43.9637C44.0595 12.7325 43.7676 10.9037 43.1068 9.19546C42.446 7.48683 41.4317 5.93751 40.1299 4.64891C38.7938 3.30888 37.205 2.24738 35.4559 1.52536C33.7065 0.803631 31.8314 0.435684 29.9392 0.443481L29.9396 0.443767Z" fill="white"/>
</svg>
