<svg width="20" height="15" viewBox="0 0 20 15" fill="none" xmlns="http://www.w3.org/2000/svg">
<path fill-rule="evenodd" clip-rule="evenodd" d="M17.8137 1.25132C18.6743 1.4772 19.352 2.14275 19.582 2.98793C20 4.51972 20 7.71582 20 7.71582C20 7.71582 20 10.9118 19.582 12.4437C19.352 13.2889 18.6743 13.9544 17.8137 14.1804C16.2542 14.5908 10 14.5908 10 14.5908C10 14.5908 3.7458 14.5908 2.18614 14.1804C1.32557 13.9544 0.647841 13.2889 0.417841 12.4437C0 10.9118 0 7.71582 0 7.71582C0 7.71582 0 4.51972 0.417841 2.98793C0.647841 2.14275 1.32557 1.4772 2.18614 1.25132C3.7458 0.84082 10 0.84082 10 0.84082C10 0.84082 16.2542 0.84082 17.8137 1.25132ZM8.12502 5.02554V11.0038L13.125 8.01478L8.12502 5.02554Z" fill="white"/>
</svg>
